<?xml version="1.0" encoding="utf-8"?>
<!-- Generator: Adobe Illustrator 16.0.0, SVG Export Plug-In . SVG Version: 6.00 Build 0)  -->
<!DOCTYPE svg PUBLIC "-//W3C//DTD SVG 1.1//EN" "http://www.w3.org/Graphics/SVG/1.1/DTD/svg11.dtd">
<svg version="1.1" id="Layer_1" xmlns="http://www.w3.org/2000/svg" xmlns:xlink="http://www.w3.org/1999/xlink" x="0px" y="0px"
	 width="820px" height="820px" viewBox="0 0 820 820" enable-background="new 0 0 820 820" xml:space="preserve">
<g>
	<path fill="#6BB8DC" d="M819.297,68.274v238.965c0,9.246-3.377,17.252-10.131,24c-6.76,6.76-14.76,10.137-24.006,10.137H546.201
		c-14.935,0-25.427-7.109-31.471-21.339c-6.056-13.869-3.558-26.131,7.465-36.798l73.607-73.613
		c-52.63-48.716-114.68-73.072-186.15-73.072c-36.99,0-72.277,7.197-105.881,21.602c-33.604,14.399-62.676,33.869-87.211,58.405
		s-44.006,53.607-58.408,87.208c-14.402,33.607-21.602,68.903-21.602,105.881c0,36.99,7.2,72.274,21.602,105.875
		c14.402,33.607,33.872,62.679,58.408,87.215c24.536,24.535,53.607,44.006,87.211,58.404
		c33.604,14.405,68.891,21.607,105.881,21.607c42.312,0,82.318-9.246,120.012-27.738c37.688-18.486,69.521-44.623,95.477-78.411
		c2.486-3.552,6.573-5.688,12.273-6.398c4.973,0,9.415,1.601,13.334,4.798l73.077,73.613c3.196,2.847,4.879,6.485,5.065,10.934
		c0.169,4.443-1.158,8.449-4,12.001c-38.76,46.935-85.706,83.29-140.821,109.077C528.949,806.409,470.806,819.3,409.653,819.3
		c-55.476,0-108.463-10.853-158.956-32.536c-50.498-21.7-94.059-50.847-130.682-87.482c-36.629-36.617-65.791-80.181-87.477-130.679
		C10.844,518.116,0,465.12,0,409.65c0-55.476,10.844-108.455,32.539-158.953c21.686-50.487,50.848-94.056,87.477-130.685
		c36.623-36.623,80.184-65.782,130.682-87.477C301.189,10.853,354.177,0,409.653,0c52.268,0,102.853,9.869,151.75,29.607
		c48.891,19.732,92.361,47.564,130.417,83.477l69.34-68.81c10.312-11.022,22.754-13.514,37.339-7.464
		C812.368,42.853,819.297,53.345,819.297,68.274z"/>
</g>
</svg>
